<svg width="13" height="12" viewBox="0 0 13 12" fill="none" xmlns="http://www.w3.org/2000/svg">
<path d="M12.8252 0.991223C13.0519 0.764467 13.0519 0.396823 12.8252 0.170067C12.5984 -0.056689 12.2308 -0.056689 12.004 0.170067L6.99524 5.17884L1.98646 0.170067C1.75971 -0.056689 1.39206 -0.056689 1.16531 0.170067C0.938552 0.396823 0.938552 0.764467 1.16531 0.991223L6.17408 6L1.16531 11.0088C0.93855 11.2355 0.93855 11.6032 1.16531 11.8299C1.39206 12.0567 1.75971 12.0567 1.98646 11.8299L6.99524 6.82116L12.004 11.8299C12.2308 12.0567 12.5984 12.0567 12.8252 11.8299C13.0519 11.6032 13.0519 11.2355 12.8252 11.0088L7.8164 6L12.8252 0.991223Z" fill="white"/>
</svg>
