<svg width="24" height="24" viewBox="0 0 24 24" fill="none" xmlns="http://www.w3.org/2000/svg">
<mask id="path-1-inside-1_16_1662" fill="white">
<path fill-rule="evenodd" clip-rule="evenodd" d="M8 3.5C8 3.22386 7.77614 3 7.5 3C7.22386 3 7 3.22386 7 3.5V11.55C5.85888 11.7816 5 12.7905 5 14C5 15.2095 5.85888 16.2184 7 16.45V20.5C7 20.7761 7.22386 21 7.5 21C7.77614 21 8 20.7761 8 20.5V16.45C9.14112 16.2184 10 15.2095 10 14C10 12.7905 9.14112 11.7816 8 11.55V3.5ZM9 14C9 14.8284 8.32843 15.5 7.5 15.5C6.67157 15.5 6 14.8284 6 14C6 13.1716 6.67157 12.5 7.5 12.5C8.32843 12.5 9 13.1716 9 14ZM17 20.5C17 20.7761 16.7761 21 16.5 21C16.2239 21 16 20.7761 16 20.5V12.45C14.8589 12.2184 14 11.2095 14 10C14 8.79052 14.8589 7.78164 16 7.55001V3.5C16 3.22386 16.2239 3 16.5 3C16.7761 3 17 3.22386 17 3.5V7.55001C18.1411 7.78164 19 8.79052 19 10C19 11.2095 18.1411 12.2184 17 12.45V20.5ZM18 10C18 9.17157 17.3284 8.5 16.5 8.5C15.6716 8.5 15 9.17157 15 10C15 10.8284 15.6716 11.5 16.5 11.5C17.3284 11.5 18 10.8284 18 10Z"/>
</mask>
<path fill-rule="evenodd" clip-rule="evenodd" d="M8 3.5C8 3.22386 7.77614 3 7.5 3C7.22386 3 7 3.22386 7 3.5V11.55C5.85888 11.7816 5 12.7905 5 14C5 15.2095 5.85888 16.2184 7 16.45V20.5C7 20.7761 7.22386 21 7.5 21C7.77614 21 8 20.7761 8 20.5V16.45C9.14112 16.2184 10 15.2095 10 14C10 12.7905 9.14112 11.7816 8 11.55V3.5ZM9 14C9 14.8284 8.32843 15.5 7.5 15.5C6.67157 15.5 6 14.8284 6 14C6 13.1716 6.67157 12.5 7.5 12.5C8.32843 12.5 9 13.1716 9 14ZM17 20.5C17 20.7761 16.7761 21 16.5 21C16.2239 21 16 20.7761 16 20.5V12.45C14.8589 12.2184 14 11.2095 14 10C14 8.79052 14.8589 7.78164 16 7.55001V3.5C16 3.22386 16.2239 3 16.5 3C16.7761 3 17 3.22386 17 3.5V7.55001C18.1411 7.78164 19 8.79052 19 10C19 11.2095 18.1411 12.2184 17 12.45V20.5ZM18 10C18 9.17157 17.3284 8.5 16.5 8.5C15.6716 8.5 15 9.17157 15 10C15 10.8284 15.6716 11.5 16.5 11.5C17.3284 11.5 18 10.8284 18 10Z" fill="black"/>
<path d="M7 11.55L7.19893 12.53L8 12.3674V11.55H7ZM7 16.45H8V15.6326L7.19893 15.47L7 16.45ZM8 16.45L7.80107 15.47L7 15.6326V16.45H8ZM8 11.55H7V12.3674L7.80107 12.53L8 11.55ZM16 12.45H17V11.6326L16.1989 11.47L16 12.45ZM16 7.55001L16.1989 8.53002L17 8.36741V7.55001H16ZM17 7.55001H16V8.36741L16.8011 8.53002L17 7.55001ZM17 12.45L16.8011 11.47L16 11.6326V12.45H17ZM7.5 4C7.22386 4 7 3.77614 7 3.5H9C9 2.67157 8.32843 2 7.5 2V4ZM8 3.5C8 3.77614 7.77614 4 7.5 4V2C6.67157 2 6 2.67157 6 3.5H8ZM8 11.55V3.5H6V11.55H8ZM6 14C6 13.2755 6.51468 12.6689 7.19893 12.53L6.80107 10.57C5.20308 10.8944 4 12.3056 4 14H6ZM7.19893 15.47C6.51468 15.3311 6 14.7245 6 14H4C4 15.6944 5.20308 17.1056 6.80107 17.43L7.19893 15.47ZM8 20.5V16.45H6V20.5H8ZM7.5 20C7.77614 20 8 20.2239 8 20.5H6C6 21.3284 6.67157 22 7.5 22V20ZM7 20.5C7 20.2239 7.22386 20 7.5 20V22C8.32843 22 9 21.3284 9 20.5H7ZM7 16.45V20.5H9V16.45H7ZM9 14C9 14.7245 8.48532 15.3311 7.80107 15.47L8.19893 17.43C9.79692 17.1056 11 15.6944 11 14H9ZM7.80107 12.53C8.48532 12.6689 9 13.2755 9 14H11C11 12.3056 9.79692 10.8944 8.19893 10.57L7.80107 12.53ZM7 3.5V11.55H9V3.5H7ZM7.5 16.5C8.88071 16.5 10 15.3807 10 14H8C8 14.2761 7.77614 14.5 7.5 14.5V16.5ZM5 14C5 15.3807 6.11929 16.5 7.5 16.5V14.5C7.22386 14.5 7 14.2761 7 14H5ZM7.5 11.5C6.11929 11.5 5 12.6193 5 14H7C7 13.7239 7.22386 13.5 7.5 13.5V11.5ZM10 14C10 12.6193 8.88071 11.5 7.5 11.5V13.5C7.77614 13.5 8 13.7239 8 14H10ZM16.5 22C17.3284 22 18 21.3284 18 20.5H16C16 20.2239 16.2239 20 16.5 20V22ZM15 20.5C15 21.3284 15.6716 22 16.5 22V20C16.7761 20 17 20.2239 17 20.5H15ZM15 12.45V20.5H17V12.45H15ZM13 10C13 11.6944 14.2031 13.1056 15.8011 13.43L16.1989 11.47C15.5147 11.3311 15 10.7245 15 10H13ZM15.8011 6.57C14.2031 6.89437 13 8.30557 13 10H15C15 9.27548 15.5147 8.66892 16.1989 8.53002L15.8011 6.57ZM15 3.5V7.55001H17V3.5H15ZM16.5 2C15.6716 2 15 2.67157 15 3.5H17C17 3.77614 16.7761 4 16.5 4V2ZM18 3.5C18 2.67157 17.3284 2 16.5 2V4C16.2239 4 16 3.77614 16 3.5H18ZM18 7.55001V3.5H16V7.55001H18ZM20 10C20 8.30557 18.7969 6.89437 17.1989 6.57L16.8011 8.53002C17.4853 8.66892 18 9.27548 18 10H20ZM17.1989 13.43C18.7969 13.1056 20 11.6944 20 10H18C18 10.7245 17.4853 11.3311 16.8011 11.47L17.1989 13.43ZM18 20.5V12.45H16V20.5H18ZM16.5 9.5C16.7761 9.5 17 9.72386 17 10H19C19 8.61929 17.8807 7.5 16.5 7.5V9.5ZM16 10C16 9.72386 16.2239 9.5 16.5 9.5V7.5C15.1193 7.5 14 8.61929 14 10H16ZM16.5 10.5C16.2239 10.5 16 10.2761 16 10H14C14 11.3807 15.1193 12.5 16.5 12.5V10.5ZM17 10C17 10.2761 16.7761 10.5 16.5 10.5V12.5C17.8807 12.5 19 11.3807 19 10H17Z" fill="black" mask="url(#path-1-inside-1_16_1662)"/>
</svg>
